<svg width="340" height="320" viewBox="0 0 340 320" fill="none" xmlns="http://www.w3.org/2000/svg">
<g clip-path="url(#clip0_403_434)">
<path d="M158.335 69.0449C60.405 148.595 190.095 258.475 252.835 141.665" stroke="#0032F7" stroke-width="10" stroke-miterlimit="10" stroke-linecap="round"/>
<path d="M276.115 132.545L252.835 141.665L243.715 118.385" stroke="#0032F7" stroke-width="10" stroke-miterlimit="10"/>
<path d="M123.335 139.044C241.445 183.424 270.825 16.0141 138.325 20.8041" stroke="#0032F7" stroke-width="10" stroke-miterlimit="10" stroke-linecap="round"/>
<path d="M118.695 5.31445L138.315 20.8045L122.835 40.4345" stroke="#0032F7" stroke-width="10" stroke-miterlimit="10"/>
<path d="M193.335 139.045C188.405 12.9748 22.705 50.8548 78.545 171.115" stroke="#0032F7" stroke-width="10" stroke-miterlimit="10" stroke-linecap="round"/>
<path d="M71.895 195.214L78.545 171.114L102.645 177.774" stroke="#0032F7" stroke-width="10" stroke-miterlimit="10"/>
</g>
<path d="M26.65 242.984C24.6667 242.984 22.995 242.361 21.635 241.114C20.3317 239.811 19.68 238.224 19.68 236.354C19.68 234.484 20.3317 232.926 21.635 231.679C22.995 230.433 24.6667 229.809 26.65 229.809C28.69 229.809 30.3617 230.433 31.665 231.679C33.025 232.926 33.705 234.484 33.705 236.354C33.705 238.224 33.025 239.811 31.665 241.114C30.3617 242.361 28.69 242.984 26.65 242.984ZM9.735 291.604V283.784H22.995V260.069C22.995 258.199 22.0883 257.264 20.275 257.264H10.925V249.444H21.89C25.4033 249.444 27.9533 250.266 29.54 251.909C31.1833 253.496 32.005 256.046 32.005 259.559V283.784H45.265V291.604H9.735Z" fill="black"/>
<path d="M60.125 291.604V249.444H67.605L68.37 254.374H68.795C69.5317 252.618 70.665 251.201 72.195 250.124C73.725 248.991 75.5383 248.424 77.635 248.424C79.675 248.424 81.46 248.934 82.99 249.954C84.52 250.974 85.6533 252.448 86.39 254.374H86.73C87.4667 252.674 88.6283 251.258 90.215 250.124C91.8017 248.991 93.7567 248.424 96.08 248.424C99.1967 248.424 101.548 249.444 103.135 251.484C104.778 253.524 105.6 256.386 105.6 260.069V291.604H96.93V261.854C96.93 260.154 96.5617 258.823 95.825 257.859C95.145 256.839 94.04 256.329 92.51 256.329C90.98 256.329 89.705 256.924 88.685 258.114C87.7217 259.304 87.24 260.976 87.24 263.129V291.604H78.485V261.854C78.485 260.154 78.145 258.823 77.465 257.859C76.785 256.839 75.68 256.329 74.15 256.329C72.62 256.329 71.345 256.924 70.325 258.114C69.305 259.304 68.795 260.976 68.795 263.129V291.604H60.125Z" fill="black"/>
<path d="M124.865 310.304V249.444H132.685L133.365 255.904H133.875C135.008 253.808 136.708 252.051 138.975 250.634C141.298 249.161 144.047 248.424 147.22 248.424C150.507 248.424 153.51 249.274 156.23 250.974C158.95 252.618 161.103 255.083 162.69 258.369C164.333 261.599 165.155 265.651 165.155 270.524C165.155 275.341 164.305 279.393 162.605 282.679C160.962 285.966 158.723 288.459 155.89 290.159C153.057 291.803 149.883 292.624 146.37 292.624C143.253 292.624 140.647 292.001 138.55 290.754C136.453 289.508 134.895 288.091 133.875 286.504V310.304H124.865ZM144.84 284.039C148.013 284.039 150.648 282.906 152.745 280.639C154.898 278.373 155.975 274.973 155.975 270.439C155.975 265.906 154.898 262.534 152.745 260.324C150.648 258.114 148.013 257.009 144.84 257.009C141.61 257.009 138.918 258.143 136.765 260.409C134.668 262.619 133.62 265.991 133.62 270.524C133.62 275.001 134.668 278.373 136.765 280.639C138.918 282.906 141.61 284.039 144.84 284.039Z" fill="black"/>
<path d="M181.545 291.604V283.784H191.83V260.069C191.83 258.199 190.923 257.264 189.11 257.264H182.395V249.444H192.51C194.833 249.444 196.732 250.124 198.205 251.484C199.678 252.788 200.415 254.629 200.415 257.009V258.029H200.84C201.463 254.856 202.795 252.476 204.835 250.889C206.932 249.246 209.963 248.424 213.93 248.424H220.475V257.944H211.295C207.952 257.944 205.373 259.106 203.56 261.429C201.747 263.753 200.84 266.529 200.84 269.759V283.784H213.93V291.604H181.545Z" fill="black"/>
<path d="M256.5 292.624C252.477 292.624 248.878 291.718 245.705 289.904C242.532 288.091 240.038 285.541 238.225 282.254C236.412 278.911 235.505 275.001 235.505 270.524C235.505 266.048 236.412 262.166 238.225 258.879C240.038 255.536 242.532 252.958 245.705 251.144C248.878 249.331 252.505 248.424 256.585 248.424C260.665 248.424 264.263 249.331 267.38 251.144C270.553 252.958 273.018 255.536 274.775 258.879C276.588 262.166 277.495 266.048 277.495 270.524C277.495 275.001 276.588 278.911 274.775 282.254C272.962 285.541 270.468 288.091 267.295 289.904C264.178 291.718 260.58 292.624 256.5 292.624ZM256.5 284.039C258.653 284.039 260.637 283.558 262.45 282.594C264.263 281.631 265.708 280.158 266.785 278.174C267.918 276.134 268.485 273.584 268.485 270.524C268.485 267.408 267.918 264.858 266.785 262.874C265.708 260.891 264.263 259.418 262.45 258.454C260.693 257.491 258.738 257.009 256.585 257.009C254.432 257.009 252.448 257.491 250.635 258.454C248.822 259.418 247.348 260.891 246.215 262.874C245.138 264.858 244.6 267.408 244.6 270.524C244.6 275.171 245.762 278.599 248.085 280.809C250.465 282.963 253.27 284.039 256.5 284.039Z" fill="black"/>
<path d="M307.06 291.604L288.785 249.444H298.985L312.5 282.084L326.1 249.444H336.215L317.855 291.604H307.06Z" fill="black"/>
<defs>
<clipPath id="clip0_403_434">
<rect width="215.87" height="196.21" fill="white" transform="translate(62.065 1.39453)"/>
</clipPath>
</defs>
</svg>
