<svg width="640" height="200" viewBox="0 0 640 200" fill="none" xmlns="http://www.w3.org/2000/svg">
<g clip-path="url(#clip0_403_417)">
<path d="M100.835 69.5449C2.90501 149.095 132.595 258.975 195.335 142.165" stroke="#0032F7" stroke-width="10" stroke-miterlimit="10" stroke-linecap="round"/>
<path d="M218.615 133.045L195.335 142.165L186.215 118.885" stroke="#0032F7" stroke-width="10" stroke-miterlimit="10"/>
<path d="M65.835 139.544C183.945 183.924 213.325 16.5141 80.825 21.3041" stroke="#0032F7" stroke-width="10" stroke-miterlimit="10" stroke-linecap="round"/>
<path d="M61.195 5.81445L80.815 21.3045L65.335 40.9345" stroke="#0032F7" stroke-width="10" stroke-miterlimit="10"/>
<path d="M135.835 139.545C130.905 13.4748 -34.795 51.3548 21.045 171.615" stroke="#0032F7" stroke-width="10" stroke-miterlimit="10" stroke-linecap="round"/>
<path d="M14.395 195.714L21.045 171.614L45.145 178.274" stroke="#0032F7" stroke-width="10" stroke-miterlimit="10"/>
</g>
<path d="M274.435 76.8C272.102 76.8 270.135 76.0667 268.535 74.6C267.002 73.0667 266.235 71.2 266.235 69C266.235 66.8 267.002 64.9667 268.535 63.5C270.135 62.0333 272.102 61.3 274.435 61.3C276.835 61.3 278.802 62.0333 280.335 63.5C281.935 64.9667 282.735 66.8 282.735 69C282.735 71.2 281.935 73.0667 280.335 74.6C278.802 76.0667 276.835 76.8 274.435 76.8ZM254.535 134V124.8H270.135V96.9C270.135 94.7 269.068 93.6 266.935 93.6H255.935V84.4H268.835C272.968 84.4 275.968 85.3667 277.835 87.3C279.768 89.1667 280.735 92.1667 280.735 96.3V124.8H296.335V134H254.535Z" fill="black"/>
<path d="M312.935 134V84.4H321.735L322.635 90.2H323.135C324.002 88.1333 325.335 86.4667 327.135 85.2C328.935 83.8667 331.068 83.2 333.535 83.2C335.935 83.2 338.035 83.8 339.835 85C341.635 86.2 342.968 87.9333 343.835 90.2H344.235C345.102 88.2 346.468 86.5333 348.335 85.2C350.202 83.8667 352.502 83.2 355.235 83.2C358.902 83.2 361.668 84.4 363.535 86.8C365.468 89.2 366.435 92.5667 366.435 96.9V134H356.235V99C356.235 97 355.802 95.4333 354.935 94.3C354.135 93.1 352.835 92.5 351.035 92.5C349.235 92.5 347.735 93.2 346.535 94.6C345.402 96 344.835 97.9667 344.835 100.5V134H334.535V99C334.535 97 334.135 95.4333 333.335 94.3C332.535 93.1 331.235 92.5 329.435 92.5C327.635 92.5 326.135 93.2 324.935 94.6C323.735 96 323.135 97.9667 323.135 100.5V134H312.935Z" fill="black"/>
<path d="M387.335 156V84.4H396.535L397.335 92H397.935C399.268 89.5333 401.268 87.4667 403.935 85.8C406.668 84.0667 409.902 83.2 413.635 83.2C417.502 83.2 421.035 84.2 424.235 86.2C427.435 88.1333 429.968 91.0333 431.835 94.9C433.768 98.7 434.735 103.467 434.735 109.2C434.735 114.867 433.735 119.633 431.735 123.5C429.802 127.367 427.168 130.3 423.835 132.3C420.502 134.233 416.768 135.2 412.635 135.2C408.968 135.2 405.902 134.467 403.435 133C400.968 131.533 399.135 129.867 397.935 128V156H387.335ZM410.835 125.1C414.568 125.1 417.668 123.767 420.135 121.1C422.668 118.433 423.935 114.433 423.935 109.1C423.935 103.767 422.668 99.8 420.135 97.2C417.668 94.6 414.568 93.3 410.835 93.3C407.035 93.3 403.868 94.6333 401.335 97.3C398.868 99.9 397.635 103.867 397.635 109.2C397.635 114.467 398.868 118.433 401.335 121.1C403.868 123.767 407.035 125.1 410.835 125.1Z" fill="black"/>
<path d="M453.135 134V124.8H465.235V96.9C465.235 94.7 464.168 93.6 462.035 93.6H454.135V84.4H466.035C468.768 84.4 471.002 85.2 472.735 86.8C474.468 88.3333 475.335 90.5 475.335 93.3V94.5H475.835C476.568 90.7667 478.135 87.9667 480.535 86.1C483.002 84.1667 486.568 83.2 491.235 83.2H498.935V94.4H488.135C484.202 94.4 481.168 95.7667 479.035 98.5C476.902 101.233 475.835 104.5 475.835 108.3V124.8H491.235V134H453.135Z" fill="black"/>
<path d="M540.435 135.2C535.702 135.2 531.468 134.133 527.735 132C524.002 129.867 521.068 126.867 518.935 123C516.802 119.067 515.735 114.467 515.735 109.2C515.735 103.933 516.802 99.3667 518.935 95.5C521.068 91.5667 524.002 88.5333 527.735 86.4C531.468 84.2667 535.735 83.2 540.535 83.2C545.335 83.2 549.568 84.2667 553.235 86.4C556.968 88.5333 559.868 91.5667 561.935 95.5C564.068 99.3667 565.135 103.933 565.135 109.2C565.135 114.467 564.068 119.067 561.935 123C559.802 126.867 556.868 129.867 553.135 132C549.468 134.133 545.235 135.2 540.435 135.2ZM540.435 125.1C542.968 125.1 545.302 124.533 547.435 123.4C549.568 122.267 551.268 120.533 552.535 118.2C553.868 115.8 554.535 112.8 554.535 109.2C554.535 105.533 553.868 102.533 552.535 100.2C551.268 97.8667 549.568 96.1333 547.435 95C545.368 93.8667 543.068 93.3 540.535 93.3C538.002 93.3 535.668 93.8667 533.535 95C531.402 96.1333 529.668 97.8667 528.335 100.2C527.068 102.533 526.435 105.533 526.435 109.2C526.435 114.667 527.802 118.7 530.535 121.3C533.335 123.833 536.635 125.1 540.435 125.1Z" fill="black"/>
<path d="M599.035 134L577.535 84.4H589.535L605.435 122.8L621.435 84.4H633.335L611.735 134H599.035Z" fill="black"/>
<defs>
<clipPath id="clip0_403_417">
<rect width="215.87" height="196.21" fill="white" transform="translate(4.565 1.89453)"/>
</clipPath>
</defs>
</svg>
